<mxfile host="app.diagrams.net" modified="2021-07-26T17:18:42.082Z" agent="5.0 (Windows NT 10.0; Win64; x64) AppleWebKit/537.36 (KHTML, like Gecko) Chrome/91.0.4472.164 Safari/537.36" etag="t9-891Jkr5fWHQ1FBUfl" version="14.9.2" type="github">
  <diagram id="0NI13tRp0sLbReP_vJqg" name="Page-1">
    <mxGraphModel dx="868" dy="527" grid="1" gridSize="10" guides="1" tooltips="1" connect="1" arrows="1" fold="1" page="1" pageScale="1" pageWidth="850" pageHeight="1100" math="0" shadow="0">
      <root>
        <mxCell id="0" />
        <mxCell id="1" parent="0" />
        <mxCell id="9ccimn0nm8ECnlisMtsK-1" value="code starts here" style="ellipse;whiteSpace=wrap;html=1;" vertex="1" parent="1">
          <mxGeometry x="140" y="20" width="190" height="80" as="geometry" />
        </mxCell>
        <mxCell id="9ccimn0nm8ECnlisMtsK-4" value="" style="endArrow=classic;html=1;exitX=0.5;exitY=1;exitDx=0;exitDy=0;" edge="1" parent="1" source="9ccimn0nm8ECnlisMtsK-1">
          <mxGeometry width="50" height="50" relative="1" as="geometry">
            <mxPoint x="210" y="100" as="sourcePoint" />
            <mxPoint x="244" y="120" as="targetPoint" />
          </mxGeometry>
        </mxCell>
        <mxCell id="9ccimn0nm8ECnlisMtsK-9" value="" style="endArrow=classic;html=1;exitX=0.455;exitY=1.05;exitDx=0;exitDy=0;exitPerimeter=0;" edge="1" parent="1">
          <mxGeometry width="50" height="50" relative="1" as="geometry">
            <mxPoint x="250.07500000000005" y="183" as="sourcePoint" />
            <mxPoint x="230" y="270" as="targetPoint" />
          </mxGeometry>
        </mxCell>
        <mxCell id="9ccimn0nm8ECnlisMtsK-12" value="" style="edgeStyle=orthogonalEdgeStyle;rounded=0;orthogonalLoop=1;jettySize=auto;html=1;" edge="1" parent="1" source="9ccimn0nm8ECnlisMtsK-10" target="9ccimn0nm8ECnlisMtsK-11">
          <mxGeometry relative="1" as="geometry" />
        </mxCell>
        <mxCell id="9ccimn0nm8ECnlisMtsK-10" value="initialize a variable int b and set it as equal to int n" style="rounded=0;whiteSpace=wrap;html=1;" vertex="1" parent="1">
          <mxGeometry x="175" y="270" width="120" height="60" as="geometry" />
        </mxCell>
        <mxCell id="9ccimn0nm8ECnlisMtsK-14" value="" style="edgeStyle=orthogonalEdgeStyle;rounded=0;orthogonalLoop=1;jettySize=auto;html=1;" edge="1" parent="1" source="9ccimn0nm8ECnlisMtsK-11" target="9ccimn0nm8ECnlisMtsK-13">
          <mxGeometry relative="1" as="geometry" />
        </mxCell>
        <mxCell id="9ccimn0nm8ECnlisMtsK-24" value="" style="edgeStyle=orthogonalEdgeStyle;rounded=0;orthogonalLoop=1;jettySize=auto;html=1;" edge="1" parent="1" source="9ccimn0nm8ECnlisMtsK-11" target="9ccimn0nm8ECnlisMtsK-23">
          <mxGeometry relative="1" as="geometry" />
        </mxCell>
        <mxCell id="9ccimn0nm8ECnlisMtsK-11" value="&amp;nbsp;a &amp;gt; o" style="whiteSpace=wrap;html=1;rounded=0;" vertex="1" parent="1">
          <mxGeometry x="460" y="200" width="120" height="100" as="geometry" />
        </mxCell>
        <mxCell id="9ccimn0nm8ECnlisMtsK-28" value="" style="edgeStyle=orthogonalEdgeStyle;rounded=0;orthogonalLoop=1;jettySize=auto;html=1;" edge="1" parent="1" source="9ccimn0nm8ECnlisMtsK-13" target="9ccimn0nm8ECnlisMtsK-27">
          <mxGeometry relative="1" as="geometry" />
        </mxCell>
        <mxCell id="9ccimn0nm8ECnlisMtsK-13" value="print -" style="whiteSpace=wrap;html=1;rounded=0;" vertex="1" parent="1">
          <mxGeometry x="390" y="450" width="120" height="60" as="geometry" />
        </mxCell>
        <mxCell id="9ccimn0nm8ECnlisMtsK-15" style="edgeStyle=orthogonalEdgeStyle;rounded=0;orthogonalLoop=1;jettySize=auto;html=1;exitX=0.5;exitY=1;exitDx=0;exitDy=0;" edge="1" parent="1" source="9ccimn0nm8ECnlisMtsK-11" target="9ccimn0nm8ECnlisMtsK-11">
          <mxGeometry relative="1" as="geometry" />
        </mxCell>
        <mxCell id="9ccimn0nm8ECnlisMtsK-20" value="input is int n" style="shape=parallelogram;perimeter=parallelogramPerimeter;whiteSpace=wrap;html=1;fixedSize=1;" vertex="1" parent="1">
          <mxGeometry x="175" y="120" width="120" height="60" as="geometry" />
        </mxCell>
        <mxCell id="9ccimn0nm8ECnlisMtsK-21" value="" style="html=1;shape=mxgraph.flowchart.annotation_2;align=left;labelPosition=right;" vertex="1" parent="1">
          <mxGeometry x="340" y="10" width="50" height="100" as="geometry" />
        </mxCell>
        <mxCell id="9ccimn0nm8ECnlisMtsK-22" value="function is void print_linr(int n)&amp;nbsp;" style="text;html=1;align=center;verticalAlign=middle;resizable=0;points=[];autosize=1;strokeColor=none;" vertex="1" parent="1">
          <mxGeometry x="375" y="50" width="180" height="20" as="geometry" />
        </mxCell>
        <mxCell id="9ccimn0nm8ECnlisMtsK-23" value="print the new line" style="whiteSpace=wrap;html=1;rounded=0;" vertex="1" parent="1">
          <mxGeometry x="690" y="250" width="120" height="100" as="geometry" />
        </mxCell>
        <mxCell id="9ccimn0nm8ECnlisMtsK-25" value="no" style="text;html=1;align=center;verticalAlign=middle;resizable=0;points=[];autosize=1;strokeColor=none;" vertex="1" parent="1">
          <mxGeometry x="590" y="250" width="30" height="20" as="geometry" />
        </mxCell>
        <mxCell id="9ccimn0nm8ECnlisMtsK-26" value="yes" style="text;html=1;align=center;verticalAlign=middle;resizable=0;points=[];autosize=1;strokeColor=none;" vertex="1" parent="1">
          <mxGeometry x="525" y="310" width="30" height="20" as="geometry" />
        </mxCell>
        <mxCell id="9ccimn0nm8ECnlisMtsK-27" value="decrement a by 1" style="whiteSpace=wrap;html=1;rounded=0;" vertex="1" parent="1">
          <mxGeometry x="590" y="450" width="120" height="60" as="geometry" />
        </mxCell>
        <mxCell id="9ccimn0nm8ECnlisMtsK-29" value="" style="endArrow=classic;html=1;exitX=0.5;exitY=0;exitDx=0;exitDy=0;" edge="1" parent="1" source="9ccimn0nm8ECnlisMtsK-27">
          <mxGeometry width="50" height="50" relative="1" as="geometry">
            <mxPoint x="580" y="380" as="sourcePoint" />
            <mxPoint x="570" y="300" as="targetPoint" />
          </mxGeometry>
        </mxCell>
        <mxCell id="9ccimn0nm8ECnlisMtsK-30" value="while loop" style="strokeWidth=2;html=1;shape=mxgraph.flowchart.annotation_2;align=left;labelPosition=right;pointerEvents=1;rotation=-45;" vertex="1" parent="1">
          <mxGeometry x="570" y="110" width="115" height="100" as="geometry" />
        </mxCell>
      </root>
    </mxGraphModel>
  </diagram>
</mxfile>
